/* XPM */
static char * bullet_xpm[] = {
"10 10 3 1",
" 	c None",
".	c #9B9B9B",
"+	c #D7D7D7",
"          ",
"          ",
"      .   ",
"      +.  ",
"       +. ",
"        +.",
"       +. ",
"      +.  ",
"      .   ",
"          "};
